<svg version="1.1" id="Layer_1" xmlns="http://www.w3.org/2000/svg" xmlns:xlink="http://www.w3.org/1999/xlink" x="0px" y="0px"
	 width="100%" viewBox="0 0 1024 1024" enable-background="new 0 0 1024 1024" xml:space="preserve">
<path fill="#000000" opacity="1.000000" stroke="none" 
	d="
M321.922546,814.243042 
	C300.824738,808.276123 280.438538,801.585083 261.408752,791.296448 
	C249.314682,784.757751 244.230881,774.438782 247.744553,761.335632 
	C254.902176,734.643494 262.026855,707.932739 270.291107,681.554382 
	C282.832825,641.522705 308.972412,612.616211 344.606720,591.672607 
	C356.957275,584.413757 369.535706,577.543030 381.991211,570.461731 
	C383.532074,569.585754 385.464233,569.139526 386.215057,567.075073 
	C385.357666,564.430664 382.728668,564.248657 380.699463,563.402649 
	C343.260223,547.794128 315.517944,521.961792 298.267090,485.139923 
	C295.802399,479.879028 293.796204,474.366638 292.039093,468.824371 
	C290.959229,465.418335 289.319580,464.177917 285.683258,464.061218 
	C273.517761,463.670776 263.896973,458.526459 257.725983,447.719482 
	C255.200821,443.297333 253.902863,438.568512 253.958878,433.405762 
	C254.069153,423.241180 253.968750,413.074463 253.981796,402.908661 
	C254.004456,385.273407 266.860291,371.912537 284.579803,371.103821 
	C286.076874,371.035461 287.595459,370.933228 289.075623,371.099701 
	C292.790985,371.517487 294.705383,369.960449 296.117584,366.427582 
	C308.157898,336.306580 327.729034,312.110199 354.805634,294.331085 
	C379.685120,277.994690 407.013367,268.789825 437.056427,268.662201 
	C447.055420,268.619720 457.057922,268.492737 467.052338,268.706696 
	C471.315704,268.798004 473.099854,267.422821 472.961060,262.999817 
	C472.731262,255.674866 472.740723,248.330246 473.006134,241.006851 
	C473.144592,237.186829 471.738647,235.076813 468.456635,233.086136 
	C447.753937,220.529205 446.199463,192.105408 465.556946,178.119034 
	C475.958405,170.603668 487.430145,169.558090 499.089264,175.296310 
	C510.471832,180.898453 516.795776,190.022629 517.411682,202.898453 
	C518.073059,216.726990 512.350708,227.057816 500.418396,233.900421 
	C498.087158,235.237259 497.062256,236.823502 497.084534,239.450623 
	C497.152252,247.449265 497.197845,255.450836 497.046967,263.447388 
	C496.975006,267.260651 498.367645,268.806061 502.315887,268.737762 
	C512.811768,268.556213 523.322144,268.399811 533.810425,268.738525 
	C568.154175,269.847687 599.142761,280.590546 625.986633,302.225891 
	C647.513062,319.575531 664.072083,340.831238 674.025208,366.826202 
	C675.723755,371.262360 678.809326,371.110535 682.381226,371.111969 
	C699.559509,371.119019 713.215698,381.556091 715.359131,398.447876 
	C717.088928,412.080292 717.312073,426.114960 714.905762,439.764862 
	C712.456299,453.659637 699.951050,463.508118 685.127136,464.020447 
	C680.827393,464.169067 678.937134,465.764282 677.734009,469.675018 
	C673.036316,484.945374 665.641541,498.864990 656.176575,511.727966 
	C654.338928,514.225403 652.315796,515.268127 649.143311,515.449829 
	C612.363220,517.556458 579.557129,530.151245 555.446960,558.277710 
	C541.602051,574.428955 524.183472,585.452454 508.805847,599.266785 
	C505.585632,602.159668 502.037537,604.708618 498.980103,607.756714 
	C494.243774,612.478516 489.037201,615.084045 482.067932,614.313049 
	C478.749237,613.945862 476.060760,613.155212 473.477509,611.067749 
	C460.000061,600.176819 446.344177,589.505188 432.943726,578.521423 
	C428.184937,574.620911 422.317474,575.037964 416.973297,573.614197 
	C413.987091,572.818665 414.045105,576.130615 414.503906,578.259399 
	C417.795654,593.533264 423.126343,607.996521 431.957184,621.010071 
	C435.325897,625.974426 438.965210,630.728088 442.991486,635.198792 
	C445.092041,637.531189 446.821960,637.681763 449.284332,635.687988 
	C456.146851,630.131470 463.271179,624.895081 470.067932,619.261841 
	C472.969482,616.856995 476.037842,616.262634 479.641876,615.862183 
	C489.928314,614.719177 497.762299,618.497864 506.005646,624.669739 
	C515.572449,631.832581 519.147461,639.245117 518.494995,651.431396 
	C515.312012,710.885437 557.010010,776.543518 632.797913,789.325806 
	C659.473267,793.824768 685.587158,790.661255 710.299255,778.828613 
	C712.041504,777.994385 713.630676,776.555054 715.790039,776.844360 
	C717.262451,782.170105 714.583252,788.232727 709.002930,791.273865 
	C696.529297,798.071777 683.285156,803.097839 669.839722,807.566040 
	C633.199341,819.742615 595.472961,826.881409 557.167175,830.907593 
	C516.652588,835.165894 475.975739,835.496948 435.379272,832.812805 
	C397.164368,830.286194 359.292847,824.854919 321.922546,814.243042 
M527.979004,483.694122 
	C530.486633,483.541107 531.854980,485.308258 533.350708,486.871094 
	C539.684143,493.488983 546.016602,500.107910 552.361267,506.715027 
	C554.453796,508.894104 556.810059,510.761932 559.525696,512.088257 
	C566.148010,515.322754 571.131958,512.447937 571.622253,505.102264 
	C571.788452,502.612335 571.704529,500.105988 571.745972,497.607330 
	C571.918457,487.184784 573.223755,485.630341 583.291748,483.839996 
	C623.374634,476.712219 649.122253,437.873566 639.931335,398.402924 
	C632.519409,366.572632 603.248291,343.249786 570.674316,343.243896 
	C548.516174,343.239899 526.356201,343.086578 504.200317,343.317078 
	C467.067017,343.703400 429.914307,342.089355 392.800476,344.146942 
	C352.583374,346.376526 323.254395,382.178253 328.026611,422.214386 
	C332.167603,456.955170 362.141510,484.329651 398.129547,483.830811 
	C441.104919,483.235107 484.094788,483.684784 527.979004,483.694122 
M465.921417,762.521729 
	C484.891846,768.490662 502.764587,763.609131 520.397888,756.876892 
	C528.117554,753.929565 529.220703,751.516235 526.871521,743.453857 
	C519.469482,718.049561 511.992096,692.667114 504.534882,667.278809 
	C503.784485,664.724182 503.075958,662.326599 504.151855,659.533875 
	C508.674866,647.793701 508.595673,647.762268 498.922150,640.048096 
	C497.229950,638.698669 495.538910,637.347595 493.832062,636.016785 
	C492.633331,635.082214 491.342255,634.445557 489.753601,634.339111 
	C481.983612,633.818298 474.448639,633.762756 468.814636,640.624512 
	C467.262756,642.514587 465.134491,644.054199 463.014221,645.327454 
	C459.338226,647.534973 459.277496,650.072632 461.013184,653.685608 
	C462.840393,657.489319 465.036896,661.239868 463.664001,666.008423 
	C456.070007,692.385803 448.686462,718.823669 441.178619,745.225952 
	C439.629791,750.672607 440.604279,753.196106 445.806519,755.614319 
	C452.012604,758.499146 458.565094,760.419922 465.921417,762.521729 
z"/>
<path fill="#000000" opacity="1.000000" stroke="none" 
	d="
M630.270935,534.977173 
	C658.868164,529.550659 685.913147,533.100037 710.875916,547.216492 
	C748.256226,568.355042 769.888184,600.607788 773.706116,643.523315 
	C776.400208,673.807007 768.239990,701.643799 749.713806,726.049011 
	C747.352478,729.159729 747.384216,731.078735 750.288269,733.464417 
	C752.727844,735.468689 755.032959,737.670898 757.183044,739.984741 
	C759.894531,742.902710 762.640015,744.674194 767.057678,743.957764 
	C771.255005,743.277039 774.700562,745.921936 777.595825,748.791443 
	C790.254822,761.337891 802.921448,773.878113 815.448730,786.555481 
	C825.109741,796.332153 825.997864,808.594055 818.087036,819.073975 
	C810.378845,829.285461 796.014587,832.499084 784.924255,826.525818 
	C782.691162,825.323120 780.818970,823.699829 779.050110,821.922241 
	C767.416809,810.231079 755.798950,798.524475 744.135803,786.863159 
	C739.486633,782.214661 735.817932,777.368896 737.769043,770.108643 
	C738.463867,767.523132 724.461609,753.052734 721.909546,753.477966 
	C720.501953,753.712524 719.176819,754.639343 717.892761,755.388367 
	C672.589722,781.817139 627.833008,780.166687 584.838074,750.875366 
	C555.920105,731.174255 539.961548,702.437317 535.802673,667.846619 
	C530.777344,626.049072 544.854126,590.826843 575.579590,562.374939 
	C590.946167,548.145386 609.472778,539.618713 630.270935,534.977173 
M747.929932,647.222534 
	C745.598511,612.304382 728.812561,586.211487 698.382385,569.648132 
	C662.600952,550.171997 609.357239,556.675659 581.425537,593.654846 
	C559.239563,623.027222 553.112366,655.725281 567.493713,690.152283 
	C585.487488,733.227112 628.496338,754.834961 674.267212,745.762207 
	C701.251282,740.413330 720.413818,724.432556 734.692688,701.901245 
	C745.053467,685.552490 749.575012,667.530151 747.929932,647.222534 
z"/>
<path fill="#000000" opacity="1.000000" stroke="none" 
	d="
M537.445312,393.504150 
	C547.301392,381.928833 562.838196,380.409698 572.614868,384.771454 
	C585.063904,390.325439 591.929993,402.071106 591.120972,416.148438 
	C590.351379,429.539856 580.601685,440.505432 566.769958,443.536499 
	C554.766113,446.166992 540.742920,439.923096 534.883118,428.960144 
	C528.406555,416.843262 529.154236,405.025085 537.445312,393.504150 
z"/>
<path fill="#000000" opacity="1.000000" stroke="none" 
	d="
M389.641357,437.444397 
	C372.301971,421.765381 375.263550,395.654510 395.199615,385.676575 
	C415.004578,375.764252 437.975159,389.915741 438.308380,412.034821 
	C438.499542,424.726135 433.590637,434.436584 422.398895,440.411896 
	C411.150391,446.417511 400.222443,444.861328 389.641357,437.444397 
z"/>
<path fill="#000000" opacity="1.000000" stroke="none" 
	d="
M620.116272,624.971436 
	C625.572449,637.174744 630.756470,649.085632 636.214294,660.869629 
	C640.476624,670.072510 639.807007,673.940918 631.982849,681.011414 
	C617.593811,694.014282 592.934387,692.571289 581.857605,677.972534 
	C578.063965,672.972656 576.642395,668.266663 580.086914,661.609558 
	C587.191040,647.879944 592.865540,633.412537 599.198975,619.280396 
	C600.323669,616.770691 600.329285,615.156799 597.492981,613.669617 
	C594.139343,611.911377 592.342957,608.906067 593.562683,604.906982 
	C594.771545,600.943665 597.732117,599.691223 601.658936,599.712646 
	C614.153625,599.780701 626.650635,599.606323 639.142883,599.791382 
	C642.965576,599.848022 645.234009,599.017273 645.148376,594.727661 
	C645.122559,593.435425 645.510437,592.070435 645.983459,590.844727 
	C647.465637,587.004456 650.001587,584.299316 654.378235,584.051270 
	C658.732300,583.804504 660.979797,586.567383 662.645813,590.093262 
	C663.439758,591.773560 664.089478,593.512695 663.985168,595.370178 
	C663.779114,599.038208 665.760071,599.787231 668.961304,599.759949 
	C681.122253,599.656494 693.284912,599.770325 705.446411,599.704590 
	C709.271973,599.683960 712.955322,599.756470 714.504395,604.129211 
	C716.045837,608.480469 714.139526,611.676819 710.535461,613.840393 
	C708.152588,615.270874 708.455872,616.788269 709.366211,618.835632 
	C715.657227,632.985413 721.698425,647.250427 728.229919,661.287598 
	C731.995483,669.380310 731.626221,672.437866 725.711792,679.250732 
	C713.393860,693.439758 685.887939,692.913208 674.482056,678.286072 
	C669.904053,672.415100 669.426025,668.162598 672.465576,661.533997 
	C678.712830,647.909973 684.638245,634.138062 690.651306,620.407471 
	C691.093994,619.396606 691.786438,618.310364 690.729553,616.302551 
	C682.910400,616.302551 674.665527,616.101074 666.439575,616.407166 
	C663.380249,616.520935 664.072693,619.591492 664.067200,621.613831 
	C664.015259,640.772644 664.035095,659.931580 664.043274,679.090515 
	C664.045959,685.421265 664.202026,691.755188 664.042236,698.081482 
	C663.949402,701.755737 665.379700,703.281799 669.044556,702.993713 
	C674.641418,702.553833 679.995483,703.229370 684.796265,706.556335 
	C686.741699,707.904480 688.538330,709.361084 689.897766,711.273743 
	C691.479919,713.499939 692.695068,715.916199 691.446838,718.715454 
	C690.165466,721.589172 687.491760,721.341064 684.990356,721.342346 
	C664.665039,721.352844 644.339722,721.383484 624.014526,721.342407 
	C617.191040,721.328674 615.246643,717.950134 618.892883,712.136597 
	C622.590088,706.241577 628.101807,703.151184 635.136108,702.994141 
	C637.134094,702.949463 639.136719,702.924133 641.132446,703.006165 
	C644.241028,703.133850 645.611511,701.910950 645.606812,698.606567 
	C645.570251,672.627502 645.652771,646.648193 645.710999,620.669006 
	C645.716187,618.366821 645.641846,616.183533 642.485657,616.188782 
	C634.823975,616.201538 627.162170,616.200195 619.500854,616.261047 
	C618.912537,616.265686 618.327698,616.714050 617.718018,616.965820 
	C617.332275,619.986877 619.069031,622.184753 620.116272,624.971436 
M699.176270,628.332764 
	C694.074463,639.737427 688.972656,651.142090 683.636597,663.070435 
	C695.189087,663.070435 705.487305,663.070435 717.017090,663.070435 
	C711.439941,650.635986 706.312683,639.164368 701.118652,627.723083 
	C700.802490,627.026733 699.998901,627.226562 699.176270,628.332764 
M606.729187,629.656982 
	C601.822021,640.606750 596.914917,651.556519 591.627991,663.353638 
	C603.162781,663.829407 613.455505,663.919678 624.734131,663.296143 
	C619.598938,651.414124 614.845276,640.351929 610.020691,629.320801 
	C609.310852,627.697754 608.177856,627.493896 606.729187,629.656982 
z"/>
</svg>